<?xml version="1.0" encoding="UTF-8" standalone="no"?>
<!-- Created with Inkscape (http://www.inkscape.org/) -->

<svg
   width="257.6192mm"
   height="102.50299mm"
   viewBox="0 0 257.6192 102.50299"
   version="1.1"
   id="svg1"
   xml:space="preserve"
   inkscape:version="1.4.4 (dcaf3e7, 2026-05-05)"
   sodipodi:docname="SpaceMinerLogo.svg"
   xmlns:inkscape="http://www.inkscape.org/namespaces/inkscape"
   xmlns:sodipodi="http://sodipodi.sourceforge.net/DTD/sodipodi-0.dtd"
   xmlns="http://www.w3.org/2000/svg"
   xmlns:svg="http://www.w3.org/2000/svg"><sodipodi:namedview
     id="namedview1"
     pagecolor="#ffffff"
     bordercolor="#000000"
     borderopacity="0.25"
     inkscape:showpageshadow="2"
     inkscape:pageopacity="0.0"
     inkscape:pagecheckerboard="0"
     inkscape:deskcolor="#d1d1d1"
     inkscape:document-units="mm"
     inkscape:zoom="0.86926212"
     inkscape:cx="636.17175"
     inkscape:cy="76.501666"
     inkscape:window-width="1920"
     inkscape:window-height="1080"
     inkscape:window-x="0"
     inkscape:window-y="0"
     inkscape:window-maximized="0"
     inkscape:current-layer="layer1" /><defs
     id="defs1" /><g
     inkscape:label="Layer 1"
     inkscape:groupmode="layer"
     id="layer1"
     transform="translate(-1.1119846,-0.96242)"><path
       id="path1"
       style="fill:#000000"
       d="m 184.22949,9.2125624 c -0.1104,0 -0.29842,0.4119934 -0.41755,0.9157066 -0.18376,0.777038 -0.37696,0.97435 -1.27485,1.301729 -0.58205,0.212222 -1.05834,0.449863 -1.05834,0.528133 0,0.07827 0.4786,0.364688 1.06299,0.636137 0.87132,0.404726 1.10447,0.663142 1.29553,1.436605 0.12814,0.518761 0.34992,0.904485 0.49299,0.856795 0.14308,-0.04769 0.31921,-0.303627 0.39171,-0.568441 0.0725,-0.264813 0.33342,-0.77747 0.57929,-1.139465 0.24588,-0.361996 0.78025,-0.725219 1.18752,-0.806669 0.40727,-0.08145 0.74053,-0.250565 0.74053,-0.376204 0,-0.125638 -0.39414,-0.302451 -0.8754,-0.392741 -0.52378,-0.09826 -0.87488,-0.309919 -0.87488,-0.527617 0,-0.200025 -0.11838,-0.363802 -0.26304,-0.363802 -0.14465,0 -0.38071,-0.337314 -0.52451,-0.7498248 -0.1438,-0.412512 -0.3516,-0.7503418 -0.46199,-0.7503418 z M 63.725217,11.962782 c -0.105387,0.01021 -0.255055,0.340238 -0.33538,0.742074 -0.08164,0.408215 -0.360717,0.954475 -0.620117,1.213879 -0.2594,0.259403 -0.769086,0.546417 -1.132748,0.637687 -0.363661,0.09127 -0.661458,0.262126 -0.661458,0.379822 0,0.117696 0.354799,0.28531 0.788582,0.37207 0.433782,0.08676 0.937445,0.280478 1.118795,0.430982 0.18134,0.150504 0.402126,0.661383 0.490926,1.134814 0.08882,0.47343 0.282505,0.820333 0.430465,0.771013 0.14796,-0.04932 0.351606,-0.399247 0.452686,-0.777214 0.10108,-0.377967 0.315586,-0.845387 0.476456,-1.039213 0.16086,-0.193827 0.675126,-0.424423 1.142566,-0.512113 0.46745,-0.08769 0.849561,-0.257141 0.849561,-0.376722 0,-0.119581 -0.309167,-0.293936 -0.687297,-0.387056 -0.37814,-0.09312 -0.940663,-0.332982 -1.250053,-0.533301 -0.30938,-0.200319 -0.562756,-0.56699 -0.562756,-0.814937 0,-0.247948 -0.06791,-0.628958 -0.151412,-0.84646 -0.08346,-0.217502 -0.238555,-0.395325 -0.344165,-0.395325 -0.0017,0 -0.003,-1.62e-4 -0.0047,0 z m -22.250321,8.000029 c -0.476558,0 -0.825825,0.174891 -0.999939,0.500227 -0.190128,0.355257 -0.190128,0.644681 0,0.999939 0.174114,0.325336 0.523381,0.500228 0.999939,0.500228 0.476558,0 0.825824,-0.174892 0.999939,-0.500228 0.190128,-0.355258 0.190128,-0.644682 0,-0.999939 -0.174115,-0.325336 -0.523381,-0.500227 -0.999939,-0.500227 z m -16.63206,0.297656 c -2.506797,0.07764 -2.506967,0.07771 -4.912362,1.878438 -2.051867,1.536072 -2.693713,1.874779 -4.368209,2.306836 -1.079653,0.278574 -3.392833,0.940449 -5.140254,1.470711 -1.7474228,0.530263 -3.6039369,1.261636 -4.1253299,1.625224 -0.521394,0.363588 -1.4055568,1.085537 -1.9652548,1.604037 -0.844652,0.782479 -1.1352241,1.320698 -1.7079061,3.168282 -0.379481,1.224278 -0.9057596,3.069556 -1.1694376,4.100525 -0.387227,1.514044 -0.4276194,2.065273 -0.2118734,2.866491 0.146909,0.545581 0.6554046,1.955504 1.1301636,3.133142 0.863198,2.141161 0.8630135,2.141269 0.4418335,4.167705 -0.231647,1.11454 -0.3481857,2.315912 -0.2594157,2.669604 0.088771,0.353693 0.9092863,1.451002 1.8236613,2.438611 0.914374,0.987609 1.9890787,1.964903 2.3884847,2.171444 0.399405,0.206541 2.606226,0.697916 4.9040934,1.092439 2.297868,0.394523 4.684268,0.723288 5.303035,0.730188 0.618768,0.0069 1.841019,-0.141006 2.716114,-0.328662 0.875095,-0.187656 1.76583,-0.515777 1.979207,-0.729154 0.350606,-0.350606 0.333319,-0.617802 -0.178284,-2.77089 -0.566107,-2.382468 -0.566119,-2.382361 0.870748,-5.074626 0.790277,-1.480745 1.710436,-3.125383 2.04432,-3.655074 0.509302,-0.807983 0.714216,-0.944117 1.274858,-0.845427 0.36754,0.0647 2.447898,0.632572 4.622456,1.262456 3.262264,0.944944 4.059428,1.097332 4.557862,0.870231 0.332246,-0.151382 0.656279,-0.45513 0.720369,-0.674894 0.06409,-0.219765 0.291542,-1.267772 0.505396,-2.329057 0.213854,-1.061285 0.626559,-2.565473 0.917256,-3.342432 0.290698,-0.776959 0.520217,-1.820949 0.510047,-2.320272 -0.01017,-0.499324 -0.300207,-2.426639 -0.644922,-4.282942 -0.626754,-3.375097 -0.626918,-3.375379 -2.824634,-5.50044 -1.208744,-1.168783 -2.759502,-2.851668 -3.446301,-3.739823 -1.036071,-1.339829 -1.419231,-1.651179 -2.248958,-1.827796 -0.550016,-0.117072 -2.128025,-0.177575 -3.506763,-0.134875 z m 0.117305,1.21698 c 1.039125,0.0079 2.330546,0.09287 2.869593,0.188619 0.852355,0.151408 1.173468,0.427437 2.464449,2.118734 0.816443,1.069612 2.193666,2.531507 3.060278,3.248897 1.375932,1.139011 1.611227,1.462781 1.859318,2.554366 0.156257,0.68752 0.471981,2.41366 0.701249,3.835941 0.409822,2.54236 0.407633,2.612133 -0.115755,4.12533 -0.292801,0.846533 -0.729691,2.467439 -0.971,3.601847 -0.330972,1.555923 -0.538314,2.062407 -0.844393,2.062407 -0.22316,0 -1.413209,-0.286607 -2.6448,-0.637171 -1.231591,-0.350563 -3.107747,-0.921445 -4.168738,-1.268139 -1.690494,-0.552394 -2.01105,-0.589099 -2.591573,-0.299724 -0.36435,0.181619 -0.961143,0.892746 -1.326534,1.580266 -0.365391,0.68752 -1.319411,2.462703 -2.119767,3.944979 -1.455192,2.695047 -1.455168,2.694955 -1.036112,4.578531 0.230475,1.035966 0.354978,2.051075 0.276468,2.255677 -0.08054,0.20986 -0.03505,0.305278 0.104387,0.219108 0.135929,-0.08401 0.247013,-0.0561 0.247013,0.06201 0,0.118108 -0.653699,0.349682 -1.452624,0.514697 -0.798925,0.165015 -1.895839,0.289675 -2.437578,0.276985 -0.541738,-0.01269 -2.749508,-0.340263 -4.906677,-0.72812 C 9.7701757,53.324832 7.7863934,52.938069 7.5193454,52.853309 7.2522984,52.768552 6.4222728,52.047804 5.6744968,51.25134 4.9267218,50.454876 4.1413087,49.555576 3.9293837,49.253012 c -0.349505,-0.498994 -0.3421263,-0.705925 0.079582,-2.226737 0.255703,-0.922143 0.4650879,-1.934586 0.4650879,-2.249992 0,-0.315407 -0.5009244,-1.854683 -1.1131104,-3.420463 -1.113066,-2.846874 -1.1133387,-2.846878 -0.4940267,-5.182113 0.340621,-1.28438 0.8504484,-3.0374 1.1327474,-3.895369 0.422073,-1.282771 0.7607819,-1.780301 1.9058269,-2.800863 1.20214,-1.07145 1.7719456,-1.360724 4.1682205,-2.115116 1.526604,-0.480604 3.927822,-1.186406 5.336109,-1.56838 2.286151,-0.62008 2.833718,-0.889015 5.110799,-2.512508 2.550362,-1.818336 2.550204,-1.818434 4.439522,-1.804024 z m 70.533163,0.784448 c -0.300145,-0.0018 -0.55256,0.125717 -0.834575,0.407727 -0.44582,0.445823 -0.479774,0.615448 -0.232544,1.158069 0.21609,0.474266 0.479053,0.63562 1.036113,0.63562 0.49533,0 0.838169,-0.171527 1.019059,-0.50953 0.14994,-0.280202 0.202806,-0.729928 0.117306,-0.999422 -0.08553,-0.269494 -0.439406,-0.561419 -0.786516,-0.648539 -0.1136,-0.02851 -0.218795,-0.04331 -0.318843,-0.04393 z m 123.144936,0.01344 c -0.0935,0.0037 -0.18684,0.01639 -0.27595,0.03876 -0.38757,0.09727 -0.68405,0.393263 -0.78135,0.780831 -0.0895,0.356445 -0.0242,0.784116 0.15193,0.996322 0.1697,0.20447 0.55324,0.37207 0.85266,0.37207 0.29943,0 0.67938,-0.135236 0.84439,-0.30024 0.165,-0.165005 0.30024,-0.544971 0.30024,-0.844393 0,-0.299423 -0.1676,-0.683483 -0.37207,-0.853178 -0.15915,-0.132089 -0.43927,-0.201331 -0.71985,-0.190169 z M 49.910556,26.791334 c -0.176288,-0.0066 -0.352887,0.03158 -0.535367,0.114722 -0.295207,0.134506 -0.847263,0.858548 -1.226799,1.608687 -0.395186,0.781072 -0.621393,1.542289 -0.529683,1.781287 0.08808,0.229534 0.369942,0.417029 0.626318,0.417029 0.256376,0 1.076524,-0.269774 1.823144,-0.599964 0.847582,-0.374842 1.421671,-0.802154 1.528073,-1.137398 0.104187,-0.328266 0.01664,-0.771753 -0.22531,-1.141015 -0.217658,-0.332189 -0.635191,-0.731829 -0.927592,-0.888318 -0.180745,-0.09673 -0.356495,-0.148434 -0.532784,-0.15503 z m -22.480281,1.481564 c -0.414036,-0.01933 -0.845575,0.03751 -1.106909,0.156579 -0.337096,0.153591 -0.683716,0.464262 -0.770496,0.690397 -0.08678,0.226136 -0.04746,0.592996 0.08785,0.814938 0.135309,0.221942 0.631808,0.600357 1.102775,0.840775 0.470966,0.240419 1.199119,0.436969 1.618506,0.437183 0.419387,2.14e-4 0.897463,-0.134718 1.062467,-0.299723 0.165005,-0.165005 0.30024,-0.537526 0.30024,-0.827857 0,-0.290332 -0.224729,-0.768898 -0.499194,-1.063501 -0.274464,-0.294603 -0.9019,-0.610956 -1.39423,-0.703316 -0.127227,-0.02387 -0.262997,-0.03903 -0.401009,-0.04547 z m 22.548494,0.07751 c 0.04232,5.06e-4 0.08406,0.0079 0.124024,0.02326 0.203369,0.07804 0.315934,0.228882 0.250114,0.33538 -0.06582,0.106498 -0.344835,0.252678 -0.619601,0.324528 -0.422647,0.110525 -0.461182,0.059 -0.250114,-0.33538 0.116849,-0.21833 0.312211,-0.349975 0.495577,-0.347783 z m -22.539192,0.753443 c 0.09881,-4.67e-4 0.195144,0.0088 0.284737,0.02894 0.34376,0.07716 0.766047,0.317255 0.937927,0.5333 0.17188,0.216044 0.312126,0.483573 0.312126,0.594796 0,0.111217 -0.252856,0.198153 -0.56224,0.192753 -0.309383,-0.0054 -0.946596,-0.176663 -1.415934,-0.380338 -0.811861,-0.352318 -0.830251,-0.387588 -0.375171,-0.725538 0.205698,-0.152758 0.522122,-0.242513 0.818555,-0.243912 z m 102.714143,1.67845 c -0.0515,-0.0021 -0.0989,0.0081 -0.13849,0.03256 -0.19813,0.122467 -0.28784,1.446697 -0.28784,4.24677 0,2.237783 0.0752,4.14373 0.16691,4.2354 0.0917,0.09167 0.30473,0.166398 0.47336,0.166398 0.16863,0 0.37435,-0.177823 0.45785,-0.395325 0.0835,-0.217502 0.15193,-1.995933 0.15193,-3.952213 0,-2.589189 -0.0916,-3.682271 -0.33693,-4.017843 -0.13904,-0.190159 -0.33218,-0.309327 -0.48679,-0.315743 z M 12.836334,31.273231 c -0.50059,0.0084 -1.022183,0.196494 -1.976107,0.66611 -0.8772776,0.431882 -1.9419923,1.10897 -2.3657473,1.504817 -0.515231,0.481298 -0.7693782,0.955673 -0.7668782,1.431954 0.00203,0.39172 0.172858,1.44355 0.379305,2.337325 0.206447,0.893776 0.4902802,1.911992 0.6309692,2.262911 0.140689,0.350919 0.7239135,0.941606 1.2960453,1.312582 0.603586,0.391373 1.391515,0.674894 1.877404,0.674894 0.460569,0 1.141262,-0.15897 1.51257,-0.35295 0.371307,-0.19398 0.970332,-0.672056 1.330668,-1.062468 0.360335,-0.390411 0.831224,-0.991042 1.046447,-1.334802 0.215222,-0.34376 0.49798,-1.412521 0.628386,-2.375049 0.174608,-1.288763 0.155578,-1.949037 -0.07183,-2.50424 -0.169842,-0.41466 -0.717141,-1.112335 -1.215947,-1.550293 -0.498806,-0.437957 -1.307329,-0.871428 -1.796789,-0.963248 -0.177408,-0.03328 -0.341633,-0.05035 -0.508496,-0.04754 z m -0.08113,1.258838 c 0.399436,-0.0027 0.814107,0.09682 1.18649,0.289388 0.427921,0.221286 0.954253,0.67177 1.169955,1.000973 0.306358,0.467557 0.354409,0.945104 0.219108,2.182296 -0.09526,0.871095 -0.316096,1.86489 -0.490926,2.20865 -0.17483,0.34376 -0.592268,0.881059 -0.927075,1.193726 -0.334806,0.312668 -0.94489,0.664996 -1.35599,0.782898 -0.489825,0.140476 -0.998901,0.108188 -1.477429,-0.09302 C 10.677716,39.928114 10.180179,39.587516 9.973976,39.339922 9.767774,39.092327 9.414671,38.034549 9.189011,36.989162 8.910203,35.697561 8.8555255,34.942976 9.0189955,34.634267 c 0.132309,-0.24986 0.7588947,-0.782817 1.3921635,-1.184424 0.633268,-0.401607 1.511536,-0.797967 1.951818,-0.880567 0.127714,-0.02396 0.259079,-0.0363 0.392225,-0.03721 z m 111.996778,0.431498 c -0.33262,0 -0.55818,0.396012 -0.88987,1.562179 -0.24443,0.8594 -0.59452,2.068923 -0.77773,2.687691 -0.1832,0.618768 -0.51376,1.84227 -0.73483,2.718697 -0.22103,0.876428 -0.34236,1.748122 -0.26976,1.93735 0.0726,0.189228 0.30074,0.344165 0.50747,0.344165 0.23889,0 0.51332,-0.478389 0.75292,-1.312582 0.20736,-0.721896 0.76101,-2.718656 1.2299,-4.437455 0.4689,-1.718799 0.80181,-3.209848 0.74001,-3.312976 -0.0618,-0.103125 -0.31299,-0.187069 -0.55811,-0.187069 z m 10.96523,0 c -0.31998,0 -0.48938,0.17002 -0.48938,0.491443 0,0.270401 0.4626,2.154553 1.02836,4.187342 0.56575,2.03279 1.13224,3.892965 1.25884,4.133597 0.1266,0.240632 0.34258,0.4377 0.47956,0.4377 0.13698,0 0.31084,-0.161289 0.38654,-0.358635 0.0757,-0.197346 -0.15904,-1.51948 -0.52194,-2.937805 -0.3629,-1.418326 -0.88354,-3.338255 -1.15652,-4.266406 -0.39402,-1.339688 -0.59692,-1.687236 -0.98546,-1.687236 z m -81.610527,3.500045 c -0.308661,0 -1.495198,0.929416 -2.952275,2.312521 -1.339936,1.271911 -2.434926,2.490646 -2.432926,2.708361 0.002,0.217714 0.07886,0.47057 0.170532,0.56224 0.09167,0.09167 0.400829,0.170683 0.687296,0.175183 0.286466,0.0045 1.729368,-0.248913 3.206523,-0.562756 2.685737,-0.570622 2.685967,-0.57078 3.235461,-1.606104 0.549494,-1.035324 0.549257,-1.035278 -0.42478,-2.31252 -0.61715,-0.80926 -1.16284,-1.276925 -1.489831,-1.276925 z m -0.106454,1.250053 c 0.0021,-2.71e-4 0.0044,0 0.0062,0 0.116842,0 0.38314,0.409125 0.592212,0.909505 0.267395,0.639967 0.303177,1.002956 0.120406,1.223181 -0.142905,0.172191 -0.776782,0.390482 -1.408699,0.485242 -0.631917,0.09476 -1.303223,0.231458 -1.491899,0.303858 -0.188676,0.0724 -0.343131,0.002 -0.343131,-0.156063 0,-0.158107 0.521518,-0.844893 1.159102,-1.526522 0.627622,-0.670979 1.235514,-1.222149 1.365808,-1.239201 z m -11.542964,4.019393 c -0.156936,0.0077 -0.358525,0.03273 -0.621151,0.06873 -0.61214,0.0839 -1.56244,0.381603 -2.112016,0.661975 -0.549576,0.280373 -0.999422,0.554555 -0.999422,0.609265 0,0.05471 0.06847,0.277558 0.151929,0.49506 0.117602,0.306468 0.531116,0.395325 1.83658,0.395325 1.355501,0 1.770738,-0.09566 2.127519,-0.489893 0.310955,-0.343598 0.39341,-0.689044 0.275952,-1.157035 -0.118562,-0.472389 -0.188584,-0.60652 -0.659391,-0.583427 z m 188.822065,0.0083 c -0.54354,7.45e-4 -0.97306,0.02462 -1.15703,0.0708 -0.50179,0.125941 -1.12941,0.868902 -2.51096,2.972428 -1.01304,1.54244 -2.42713,3.422802 -3.14245,4.179073 -0.71531,0.756272 -1.44879,1.60033 -1.63039,1.875338 -0.19113,0.28944 -0.36054,1.405922 -0.40204,2.651001 -0.0666,2.000401 -0.0249,2.211706 0.5948,3.024105 0.36644,0.480437 1.54533,1.809368 2.61999,2.953308 1.07467,1.143939 2.39275,2.398868 2.92902,2.78846 0.67192,0.488138 1.27604,0.708484 1.94355,0.708484 0.70808,0 1.41876,-0.284244 2.64118,-1.056266 1.51044,-0.953933 1.91458,-1.085095 4.17598,-1.355473 2.43984,-0.291713 2.52493,-0.323533 3.3538,-1.256254 0.4678,-0.526411 1.3989,-1.912999 2.0686,-3.081466 0.6697,-1.168468 1.2175,-2.437603 1.2175,-2.819983 0,-0.382381 -0.29486,-2.126486 -0.65526,-3.875732 -0.3604,-1.749247 -0.68628,-3.416355 -0.72398,-3.704683 -0.0377,-0.288328 -0.25023,-0.875339 -0.47233,-1.30483 -0.22209,-0.429491 -0.65008,-0.913114 -0.95136,-1.074353 -0.30128,-0.16124 -1.71309,-0.556606 -3.13727,-0.8785 -1.42418,-0.321893 -3.63817,-0.658711 -4.9196,-0.748791 -0.64072,-0.04505 -1.29821,-0.06741 -1.84175,-0.06666 z m 0.14004,1.226282 c 0.58529,-0.0021 2.16029,0.161847 3.50005,0.364836 1.33975,0.202989 3.11117,0.54298 3.93619,0.755509 0.82503,0.212529 1.67788,0.598516 1.89549,0.857312 0.2176,0.258796 0.75399,2.197091 1.19166,4.307231 0.43768,2.110141 0.79369,3.964807 0.79169,4.121712 -0.002,0.156905 -0.62505,1.336464 -1.38442,2.621545 -0.75938,1.285081 -1.52622,2.482244 -1.70428,2.660303 -0.17806,0.178059 -1.46081,0.471162 -2.85048,0.651123 -2.24733,0.291028 -2.71011,0.44192 -4.18527,1.366842 -0.91218,0.571937 -1.92148,1.040246 -2.24276,1.040246 -0.41431,0 -1.457,-0.878563 -3.58634,-3.021004 -2.73468,-2.751509 -3.01124,-3.113216 -3.10214,-4.062284 -0.0548,-0.573054 -0.027,-1.520394 0.0615,-2.104781 0.12759,-0.842841 0.46586,-1.386418 1.63762,-2.630331 0.81245,-0.862472 2.26467,-2.773249 3.2272,-4.246252 1.75005,-2.678199 1.75011,-2.678207 2.81429,-2.682007 z m -132.939685,0.24598 c -7.8697,0 -9.219299,0.0541 -9.697599,0.389123 -0.39489,0.276591 -0.556039,0.64342 -0.556039,1.267623 0,0.559733 0.261973,1.257386 0.721403,1.923397 0.39651,0.574791 0.970174,1.270118 1.275374,1.545125 0.52489,0.472974 1.003048,0.506699 8.841838,0.626319 4.557818,0.06955 8.455748,0.211779 8.662008,0.316259 0.20626,0.10448 0.62853,0.561166 0.93792,1.014409 0.43631,0.639199 0.56224,1.176554 0.56224,2.395719 0,0.894581 -0.16521,1.91982 -0.38344,2.3797 -0.22109,0.465917 -0.75373,0.984625 -1.25832,1.225248 -0.74982,0.357561 -1.83391,0.417546 -7.57163,0.417546 -5.169001,0 -6.978978,0.08375 -7.935948,0.367936 -0.74664,0.221728 -1.548211,0.694048 -2.015381,1.187524 -0.42664,0.450656 -0.930038,1.100597 -1.118278,1.444357 -0.25047,0.457395 -0.364514,2.03863 -0.425814,5.895764 -0.05346,3.366537 0.01722,5.645791 0.195854,6.309175 0.18972,0.704569 0.498107,1.15722 0.958597,1.40715 0.37334,0.202631 1.162679,0.372771 1.753899,0.378271 0.59122,0.0055 1.411554,-0.163879 1.823144,-0.376721 0.41159,-0.212841 0.855947,-0.670349 0.987537,-1.016475 0.1316,-0.346125 0.239262,-2.349051 0.239262,-4.450892 0,-2.12992 0.121421,-4.169689 0.274401,-4.608504 0.27446,-0.787328 0.274632,-0.787549 6.474027,-0.787549 5.48148,0 6.38327,-0.05712 7.78815,-0.495577 0.87389,-0.272737 2.07844,-0.823314 2.67684,-1.223181 0.59841,-0.399867 1.51993,-1.362722 2.04742,-2.139921 0.53357,-0.786164 1.09174,-2.006882 1.25832,-2.751253 0.17926,-0.800687 0.25252,-2.377718 0.18242,-3.926892 -0.0843,-1.861329 -0.25931,-2.904551 -0.6227,-3.713469 -0.27796,-0.618768 -0.94384,-1.585725 -1.4795,-2.148706 -0.53566,-0.56298 -1.32542,-1.263753 -1.75545,-1.557527 -0.43002,-0.293774 -1.43815,-0.705255 -2.24017,-0.914156 -1.17576,-0.30625 -3.22918,-0.379822 -10.600385,-0.379822 z m 31.726225,0 c -0.78905,0 -1.42308,0.180922 -2.00349,0.572058 -0.50539,0.340585 -1.23689,1.277302 -1.80661,2.313037 -0.52651,0.957163 -1.47256,2.696096 -2.1022,3.86488 -0.62964,1.168783 -1.35214,2.423991 -1.60558,2.788977 -0.25344,0.364987 -0.46096,0.739014 -0.46096,0.831474 0,0.09246 -0.62211,1.292443 -1.38286,2.666504 -0.76074,1.374061 -1.95612,3.587484 -2.65617,4.918563 -0.70005,1.33108 -2.15863,4.063511 -3.24166,6.071981 -1.40941,2.613766 -1.96939,3.905455 -1.96939,4.544425 0,0.666646 0.16697,1.023827 0.65888,1.410767 0.50834,0.399854 1.01878,0.518314 2.23603,0.518314 1.28382,0 1.69394,-0.104928 2.20297,-0.562756 0.344,-0.309384 1.266,-1.743611 2.04897,-3.187402 0.78297,-1.443791 2.12238,-3.918628 2.97656,-5.499923 0.85418,-1.581295 2.49645,-4.619181 3.64939,-6.750492 1.15293,-2.131311 2.27884,-4.212529 2.50218,-4.625041 0.25579,-0.472462 0.63912,-0.778316 1.03559,-0.826306 0.57722,-0.06986 0.81137,0.261812 2.82412,4.000272 1.20705,2.241961 2.58539,4.807686 3.06338,5.701461 0.47798,0.893776 1.12728,2.092487 1.4428,2.66392 0.31552,0.571433 0.507,1.105815 0.4253,1.187525 -0.0817,0.08172 -0.0332,0.148311 0.10801,0.148311 0.14122,0 1.08815,1.584283 2.10426,3.520715 1.31948,2.514587 2.04016,3.622153 2.52233,3.875216 0.37131,0.194878 1.24908,0.3545 1.95026,0.3545 0.70118,0 1.59329,-0.164698 1.98231,-0.365869 0.38902,-0.20117 0.77708,-0.547907 0.86248,-0.770495 0.0854,-0.222587 0.15503,-0.633711 0.15503,-0.91364 0,-0.279928 -0.89985,-2.183784 -1.99988,-4.230749 -1.10003,-2.046964 -1.99987,-3.811714 -1.99987,-3.921725 0,-0.110011 -0.31644,-0.700234 -0.7028,-1.311547 -0.38635,-0.611312 -1.38491,-2.405025 -2.21899,-3.98632 -0.83408,-1.581295 -2.18893,-4.11832 -3.01119,-5.637382 -0.82226,-1.519062 -1.63013,-3.170854 -1.79523,-3.671094 -0.16509,-0.50024 -0.40622,-0.94531 -0.53537,-0.98857 -0.12915,-0.04326 -0.71309,-0.912474 -1.29811,-1.931665 -0.74921,-1.305241 -1.32118,-1.988872 -1.93477,-2.312521 -0.48132,-0.253881 -1.38785,-0.459403 -2.02572,-0.459403 z m 67.86511,0 c -7.89017,0 -11.19215,0.08475 -11.93209,0.306441 -0.56267,0.16858 -1.4221,0.705861 -1.90996,1.193726 -0.48787,0.487864 -1.02463,1.347292 -1.19321,1.909961 -0.22201,0.740888 -0.30527,4.014585 -0.30127,11.869559 0.005,10.364543 0.028,10.895946 0.51366,11.966712 0.27955,0.616295 0.69918,1.335241 0.93225,1.597835 0.23308,0.262594 0.98628,0.741607 1.6738,1.064535 1.25003,0.587183 1.25007,0.587228 12.18788,0.589628 10.60618,0.0024 10.9527,-0.01279 11.43755,-0.497644 0.27501,-0.275008 0.50023,-0.788733 0.50023,-1.141533 0,-0.352799 -0.12924,-0.88718 -0.28733,-1.187524 -0.15809,-0.300344 -0.35768,-0.60201 -0.44338,-0.67076 -0.0857,-0.06875 -0.35905,-0.44392 -0.6072,-0.833541 -0.24815,-0.389621 -0.80818,-0.852297 -1.24437,-1.028361 -0.57548,-0.232286 -3.0224,-0.337719 -8.91831,-0.383439 -4.46888,-0.03465 -8.4624,-0.07769 -8.87491,-0.09612 -0.75002,-0.0335 -0.75021,-0.03393 -0.82011,-3.059762 -0.0597,-2.585304 -0.009,-3.076575 0.35037,-3.374988 0.33432,-0.277727 1.91044,-0.362762 7.69513,-0.416512 4.00108,-0.03718 7.51003,-0.119358 7.79746,-0.182418 0.28743,-0.06306 0.99073,-0.740505 1.5627,-1.505334 0.67229,-0.898966 1.03973,-1.651905 1.03973,-2.130103 0,-0.406846 -0.22471,-0.96471 -0.49972,-1.239717 -0.47841,-0.478414 -0.85388,-0.501617 -8.68784,-0.529167 -4.50325,-0.01583 -8.381,-0.0092 -8.61704,0.01447 -0.26026,0.02613 -0.48589,-0.184018 -0.57309,-0.533817 -0.0789,-0.317249 -0.1109,-1.758081 -0.0708,-3.201872 0.0729,-2.625075 0.0732,-2.624893 9.32346,-2.763655 5.08764,-0.07632 9.26841,-0.160776 9.29091,-0.187586 0.0225,-0.02681 0.61316,-0.733915 1.31258,-1.570963 0.88946,-1.064481 1.27176,-1.740688 1.27176,-2.249992 0,-0.400488 -0.22522,-0.952824 -0.50023,-1.227832 -0.48473,-0.484734 -0.83315,-0.500228 -11.40861,-0.500228 z m -125.204759,0.05219 c -10.01572,0.073 -10.015688,0.07277 -11.418941,0.762227 -0.771787,0.3792 -1.903602,1.175605 -2.515092,1.769918 -0.61149,0.594313 -1.386337,1.634434 -1.721859,2.31097 -0.540065,1.088961 -0.609848,1.559899 -0.609782,4.105176 6.9e-5,2.628963 0.05667,2.981786 0.662492,4.124813 0.364398,0.68752 1.088141,1.673805 1.608171,2.191597 0.52003,0.517791 1.571777,1.249238 2.337325,1.625224 1.385781,0.680573 1.421291,0.683771 8.017081,0.80822 4.3418,0.08192 6.798728,0.224819 7.128248,0.414445 0.27655,0.159144 0.702609,0.510525 0.947229,0.78083 0.24462,0.270305 0.540337,1.094627 0.656807,1.831413 0.12444,0.786971 0.115849,1.598976 -0.02067,1.968872 -0.12782,0.346309 -0.580293,0.939097 -1.005623,1.317233 -0.69476,0.617673 -0.967076,0.689239 -2.677356,0.704349 -1.04703,0.0093 -4.941135,0.03741 -8.653735,0.06253 -5.495305,0.03719 -6.876411,0.115951 -7.430038,0.423747 -0.374028,0.207947 -1.189934,1.10188 -1.812809,1.986442 -0.622876,0.884561 -1.132231,1.754844 -1.132231,1.934248 0,0.179404 0.230292,0.556887 0.512114,0.838709 0.503206,0.503202 0.704161,0.511275 11.187947,0.430465 9.46742,-0.07298 10.805758,-0.132196 11.825118,-0.522966 0.63218,-0.242346 1.7661,-0.990776 2.52026,-1.662947 0.9494,-0.846187 1.595577,-1.707973 2.100647,-2.801897 0.65196,-1.412128 0.729671,-1.845831 0.729671,-4.080371 0,-2.184727 -0.08385,-2.67876 -0.665075,-3.918624 -0.36581,-0.780355 -1.125579,-1.918089 -1.688269,-2.528527 -0.60766,-0.659242 -1.657116,-1.402934 -2.584856,-1.831413 -1.56191,-0.721378 -1.561907,-0.721456 -8.187097,-0.84646 -4.53219,-0.08551 -6.792599,-0.221046 -7.155119,-0.428915 -0.29146,-0.167125 -0.703576,-0.673353 -0.915706,-1.124995 -0.21214,-0.451642 -0.418253,-0.990055 -0.457853,-1.19631 -0.03959,-0.206256 0.01455,-0.808876 0.119889,-1.339453 0.10533,-0.530577 0.481325,-1.233872 0.836125,-1.562695 0.35481,-0.328823 0.656977,-0.620876 0.671277,-0.649056 0.01429,-0.02818 3.871313,-0.112646 8.571053,-0.187586 8.13908,-0.129789 8.577809,-0.160631 9.237679,-0.653707 0.38102,-0.284717 1.063977,-1.056691 1.517737,-1.71514 0.45376,-0.658449 0.825272,-1.45787 0.825272,-1.776636 0,-0.33126 -0.28818,-0.8063 -0.67231,-1.10846 -0.66253,-0.521148 -0.81438,-0.527239 -10.68772,-0.455269 z m 94.416459,0 c -10.69122,0.07261 -10.69138,0.07279 -12.36307,0.896069 -1.11776,0.550472 -2.0491,1.254513 -2.8112,2.124935 -0.62688,0.715982 -1.38783,1.920568 -1.69085,2.676839 -0.51272,1.279614 -0.5572,1.857452 -0.6382,8.324557 -0.0495,3.951314 0.0225,7.653087 0.16691,8.580355 0.13965,0.896959 0.50682,2.152456 0.81545,2.79001 0.30864,0.637554 0.95228,1.59209 1.43041,2.121318 0.47812,0.529227 1.37673,1.260004 1.99729,1.623673 0.62055,0.363669 1.6427,0.799476 2.27118,0.968933 0.81241,0.21905 4.09989,0.313045 11.37347,0.325045 9.18376,0.01515 10.27731,-0.02545 10.68772,-0.396875 0.25146,-0.227568 0.45733,-0.667789 0.45733,-0.978235 0,-0.310447 -0.37554,-1.133655 -0.83405,-1.829862 -0.45851,-0.696208 -1.14797,-1.51315 -1.53221,-1.815393 -0.68251,-0.536863 -0.89211,-0.551798 -9.10384,-0.639238 -4.62304,-0.04923 -8.77456,-0.147808 -9.22527,-0.219108 -0.45071,-0.07131 -0.75353,-0.236346 -0.67283,-0.366902 0.0807,-0.130557 -3.6e-4,-0.238322 -0.18035,-0.239262 -0.18,-9.39e-4 -0.60864,-0.414399 -0.9524,-0.918807 -0.61456,-0.901767 -0.62628,-1.013173 -0.71158,-6.660059 -0.0477,-3.158618 -0.009,-6.368328 0.0868,-7.132898 0.15031,-1.203003 0.32024,-1.534523 1.26246,-2.463415 0.83259,-0.820812 1.2827,-1.075355 1.91306,-1.080555 0.45338,-0.0038 4.22417,-6.82e-4 8.37933,0.0067 5.93555,0.0106 7.73436,-0.06183 8.39277,-0.33693 0.50621,-0.211507 1.30147,-0.966253 2.00815,-1.906343 0.75899,-1.009684 1.16944,-1.807922 1.16944,-2.27273 0,-0.461749 -0.17846,-0.812157 -0.5023,-0.98547 -0.34234,-0.183212 -3.90966,-0.24584 -11.19363,-0.19637 z m -37.00188,1.360124 c 0.27275,0.0092 0.55674,0.04625 0.786,0.109554 0.67115,0.185312 1.03612,0.569666 1.87224,1.971456 0.57126,0.957724 1.0387,1.913957 1.0387,2.124418 0,0.210461 0.0884,0.382405 0.19637,0.382405 0.10795,0 0.52972,0.643934 0.93741,1.430921 0.40769,0.786988 0.9754,1.827596 1.26194,2.31252 0.28654,0.484923 1.17493,2.119277 1.97404,3.63182 0.79911,1.512544 2.59673,4.887742 3.99458,7.500317 1.39785,2.612575 2.85576,5.36179 3.24012,6.109188 0.66334,1.289876 0.6762,1.375286 0.24959,1.687235 -0.2472,0.180753 -0.90588,0.328231 -1.46399,0.327629 -1.01475,-0.0011 -1.01488,-9.6e-4 -2.80965,-3.312459 -0.98712,-1.821324 -1.83114,-3.480341 -1.87534,-3.686597 -0.0442,-0.206256 -0.14207,-0.431478 -0.21807,-0.500228 -0.076,-0.06875 -0.37257,-0.518675 -0.65887,-0.999939 -0.2863,-0.481263 -0.91679,-1.606331 -1.40095,-2.500106 -0.48417,-0.893776 -1.1719,-2.176331 -1.52859,-2.849955 -0.35668,-0.673623 -0.64854,-1.376402 -0.64854,-1.562178 0,-0.185776 -0.0937,-0.337964 -0.20774,-0.337964 -0.11408,0 -0.69525,-0.928 -1.29191,-2.062407 -0.59666,-1.134408 -1.28898,-2.428389 -1.53841,-2.875276 -0.24943,-0.446888 -0.39478,-0.812354 -0.32298,-0.812354 0.0718,0 0.0133,-0.140762 -0.1297,-0.312642 -0.14298,-0.171879 -0.47779,-0.593652 -0.74414,-0.937411 -0.3921,-0.506069 -0.56855,-0.573687 -0.92708,-0.3545 -0.24353,0.148888 -1.19698,1.634543 -2.11873,3.30109 -0.92174,1.666548 -2.29376,4.188404 -3.04891,5.60431 -0.75516,1.415907 -1.67479,3.137052 -2.04381,3.824572 -0.36903,0.687519 -0.98466,1.812587 -1.36839,2.500106 -0.38373,0.68752 -1.34306,2.487212 -2.13165,3.999756 -0.78858,1.512543 -1.66582,3.003593 -1.94924,3.312976 -0.35328,0.385653 -0.80071,0.56224 -1.42368,0.56224 -0.49977,0 -1.08302,-0.140764 -1.29605,-0.312643 -0.34076,-0.274945 -0.20281,-0.657914 1.14929,-3.187402 0.84526,-1.581295 2.11038,-3.944038 2.8112,-5.250326 0.70081,-1.306287 1.69729,-3.162284 2.21433,-4.124812 0.51703,-0.962527 1.56136,-2.875348 2.32079,-4.250387 0.75943,-1.37504 1.76592,-3.231038 2.23656,-4.124813 0.47065,-0.893776 1.2605,-2.356672 1.75544,-3.250447 0.49495,-0.893776 0.96283,-1.681014 1.03973,-1.749764 0.0768,-0.06875 0.26073,-0.344437 0.40876,-0.612366 0.14802,-0.267928 0.57141,-0.567916 0.94052,-0.666626 0.18455,-0.04936 0.44607,-0.0681 0.71881,-0.05891 z m -56.382084,0.03204 c 7.95036,0.06841 8.049896,0.07546 8.216036,0.59893 0.11392,0.35891 0.03816,0.603086 -0.235128,0.756026 -0.22191,0.12419 -0.403592,0.384708 -0.403592,0.579293 0,0.194585 -0.217722,0.47054 -0.483692,0.612882 -0.30407,0.162733 -3.415591,0.258899 -8.382951,0.258899 -6.54343,0 -8.057793,0.06595 -8.820133,0.384473 -0.50619,0.2115 -1.133414,0.576966 -1.393714,0.812354 -0.260295,0.235388 -0.686336,0.84531 -0.946712,1.355472 -0.273528,0.53593 -0.470872,1.433046 -0.467672,2.124935 0.003,0.658621 0.217618,1.664847 0.476974,2.236039 0.334862,0.737484 0.817591,1.241684 1.666048,1.738912 1.1948,0.700198 1.195116,0.699999 7.335986,0.769979 3.59324,0.04095 6.581458,0.18902 7.203178,0.356568 0.58439,0.157487 1.062468,0.384211 1.062468,0.503845 0,0.119636 0.174246,0.217558 0.387056,0.217558 0.2128,0 0.916106,0.53438 1.562696,1.187524 0.81802,0.8263 1.319885,1.622045 1.650545,2.616378 0.38013,1.142957 0.4444,1.829896 0.32091,3.431315 -0.09439,1.223996 -0.343497,2.369075 -0.640787,2.946073 -0.26747,0.519126 -0.86186,1.360778 -1.32085,1.87017 -0.459,0.509392 -1.361342,1.158032 -2.005562,1.441773 -0.64421,0.283741 -1.681429,0.611667 -2.304769,0.728121 -0.62335,0.116468 -1.171947,0.17315 -1.219047,0.12609 -0.04706,-0.04707 -4.162248,-0.09375 -9.145178,-0.103353 -9.059868,-0.01752 -9.060023,-0.01726 -8.422742,-0.774629 0.350505,-0.416552 0.63717,-0.837 0.63717,-0.93431 0,-0.09731 0.326703,-0.370262 0.726054,-0.606165 0.646399,-0.381834 1.63022,-0.428914 8.96121,-0.428914 8.11387,0 8.250792,-0.0084 9.323462,-0.575676 0.74411,-0.393492 1.271008,-0.919877 1.664498,-1.663981 0.42735,-0.808134 0.575676,-1.500851 0.575676,-2.687174 0,-0.906548 -0.156772,-1.901211 -0.362252,-2.298568 -0.19923,-0.385272 -0.759535,-1.049221 -1.244885,-1.475362 -0.48535,-0.426141 -1.250325,-0.834428 -1.700155,-0.907438 -0.44982,-0.07301 -3.518089,-0.175306 -6.818189,-0.227376 -5.75149,-0.09076 -6.057212,-0.120584 -7.37526,-0.716236 -0.756272,-0.341773 -1.741393,-0.998276 -2.189014,-1.458826 -0.447621,-0.46055 -1.056164,-1.337868 -1.352372,-1.949751 -0.337602,-0.697394 -0.579202,-1.775249 -0.648022,-2.888713 -0.08585,-1.389026 0.0036,-2.075947 0.411344,-3.151229 0.318486,-0.839915 0.97811,-1.842941 1.69447,-2.57762 0.645022,-0.661517 1.549943,-1.360649 2.011247,-1.553394 0.461307,-0.192745 1.538226,-0.438987 2.393136,-0.547253 0.8549,-0.10827 5.176094,-0.165731 9.602514,-0.127641 z m 92.955054,0.05581 c 9.31441,0 9.35898,0.0022 9.64489,0.536401 0.23346,0.436225 0.21164,0.579232 -0.11628,0.762744 -0.22188,0.124173 -0.40359,0.3823 -0.40359,0.573609 0,0.191308 -0.14076,0.438594 -0.31264,0.549837 -0.17188,0.111243 -4.26886,0.258878 -9.10436,0.327628 -8.79181,0.125004 -8.79146,0.124861 -9.85573,0.874882 -0.58536,0.412512 -1.32647,1.245548 -1.64641,1.851567 -0.56941,1.07851 -0.58136,1.252254 -0.58136,8.195882 0,5.837353 0.0687,7.258136 0.38706,8.020182 0.21282,0.509347 0.63459,1.191545 0.93741,1.516187 0.30282,0.324642 0.96779,0.804458 1.47795,1.066085 0.85865,0.440344 1.56588,0.475423 9.51621,0.475423 8.58843,0 8.5884,-5.4e-5 9.29297,0.735356 0.38751,0.404475 0.7356,1.018441 0.7736,1.364257 0.069,0.628764 0.0687,0.628668 -9.72085,0.624768 -7.71255,-0.0031 -10.02824,-0.07856 -10.91458,-0.35605 -0.61877,-0.193718 -1.69931,-0.856247 -2.40141,-1.472779 -0.80085,-0.703249 -1.49935,-1.614824 -1.87482,-2.445845 -0.57974,-1.283086 -0.60119,-1.551867 -0.68109,-8.57467 -0.0569,-5.002153 0.0104,-7.676629 0.21756,-8.625314 0.16517,-0.756271 0.69179,-1.966014 1.16995,-2.688208 0.47816,-0.722195 1.17655,-1.531778 1.55236,-1.799373 0.3758,-0.267594 1.26914,-0.717816 1.98489,-0.999939 1.23032,-0.484951 1.81191,-0.51263 10.65827,-0.51263 z m 30.04467,0.05478 c 7.96798,-0.05258 10.71279,0.0038 10.84844,0.223242 0.0999,0.161612 0.0656,0.627027 -0.0765,1.034562 -0.16642,0.477383 -0.55464,0.865059 -1.09141,1.089339 -0.65789,0.274887 -2.66558,0.348299 -9.5436,0.348299 -7.12202,0 -8.79902,0.06425 -9.19582,0.353984 -0.4404,0.321572 -0.49303,0.736176 -0.56483,4.482414 -0.0724,3.779842 -0.0406,4.148804 0.37517,4.371309 0.27133,0.145198 3.94927,0.234512 9.13743,0.221692 4.77581,-0.0118 8.7501,0.04475 8.8315,0.12609 0.0813,0.08134 -0.0323,0.4961 -0.25218,0.921391 -0.21993,0.42529 -0.5657,0.77308 -0.76843,0.77308 -0.20272,0 -0.36845,0.168915 -0.36845,0.375171 0,0.206256 -0.0281,0.396096 -0.0625,0.422196 -0.0344,0.0261 -3.83135,0.110555 -8.43773,0.187585 -8.37521,0.140058 -8.37533,0.140265 -8.44393,4.17649 -0.0685,4.031909 -0.0682,4.037043 0.58446,4.812626 0.65331,0.776377 0.65365,0.776381 8.94416,0.782381 4.55979,0.0033 8.74037,0.110274 9.29039,0.237712 0.55001,0.127437 1.18649,0.461815 1.41438,0.743107 0.22787,0.281292 0.35744,0.728773 0.28784,0.994771 -0.0696,0.265998 -0.28284,0.543707 -0.47387,0.617017 -0.19103,0.07331 -0.88307,0.173715 -1.53789,0.222725 -0.65482,0.04901 -5.18971,0.02469 -10.07742,-0.05374 -7.93738,-0.127364 -8.95892,-0.19009 -9.56273,-0.586011 -0.37182,-0.243802 -0.67592,-0.559834 -0.67592,-0.702283 0,-0.142446 -0.10763,-0.191947 -0.23927,-0.110587 -0.13165,0.08136 -0.41317,-0.187718 -0.62528,-0.597897 -0.33076,-0.639687 -0.38551,-2.347967 -0.38551,-12.008052 0,-11.262231 -1.3e-4,-11.26231 1.00098,-12.325346 1.00111,-1.06304 1.00144,-1.062874 11.66853,-1.133264 z m -97.934587,0.0041 c 7.015497,-0.05363 8.848137,0.0031 9.886217,0.304891 0.70089,0.203756 1.78635,0.769017 2.41174,1.256254 0.73456,0.572286 1.38581,1.393534 1.83968,2.320272 0.64406,1.315019 0.70078,1.658947 0.68058,4.126363 -0.0187,2.289919 -0.11299,2.889814 -0.62942,4.017842 -0.37604,0.821384 -1.02426,1.664263 -1.70377,2.214852 -0.60331,0.48885 -1.49071,1.099785 -1.97197,1.35754 -0.78059,0.418069 -1.66325,0.481732 -8.17935,0.593246 -6.090961,0.104237 -7.367872,0.188474 -7.684802,0.505912 -0.30436,0.304836 -0.405052,1.350975 -0.507462,5.250325 -0.11005,4.189907 -0.187278,4.912699 -0.551388,5.181596 -0.23275,0.171879 -0.772963,0.312643 -1.200443,0.312643 -0.42748,0 -0.911927,-0.134719 -1.076937,-0.299724 -0.21411,-0.21409 -0.30024,-1.78799 -0.30024,-5.495272 0,-4.165869 0.07855,-5.391914 0.397392,-6.188769 0.29847,-0.745932 0.661224,-1.121474 1.454174,-1.505335 0.98452,-0.476602 1.531517,-0.512362 8.040337,-0.525032 5.948319,-0.01158 7.145239,-0.07612 8.073929,-0.437183 0.71217,-0.276879 1.34648,-0.779042 1.82883,-1.447457 0.61782,-0.856127 0.75716,-1.326199 0.85266,-2.875276 0.0845,-1.370784 -7.5e-4,-2.174464 -0.32867,-3.094385 -0.33309,-0.934447 -0.71168,-1.430336 -1.52652,-1.999878 -1.0836,-0.757396 -1.08376,-0.757237 -9.302789,-0.829407 -8.21902,-0.07217 -8.219247,-0.07249 -8.699727,-0.750341 -0.26426,-0.372818 -0.465618,-0.959003 -0.447518,-1.302763 0.03282,-0.62502 0.03319,-0.625074 8.645467,-0.690914 z m 136.553937,2.940906 c -0.27576,0 -0.67844,0.177179 -0.89452,0.393257 -0.21608,0.216078 -0.39274,0.455704 -0.39274,0.532784 0,0.07708 0.23365,0.518552 0.51935,0.980819 0.2857,0.462267 0.70746,0.949998 0.93741,1.084171 0.22994,0.134174 0.5494,0.247465 0.71003,0.251665 0.16064,0.0042 0.47032,-0.06072 0.68782,-0.144178 0.23778,-0.09124 0.39532,-0.447564 0.39532,-0.894002 0,-0.487321 -0.25107,-0.993664 -0.7307,-1.473295 -0.40193,-0.401935 -0.9562,-0.731221 -1.23197,-0.731221 z M 39.6471,48.036032 c -0.29788,0.0019 -0.478789,0.06708 -0.559656,0.197921 -0.108739,0.175943 -0.01538,0.432397 0.220142,0.604614 0.224976,0.164507 2.014267,0.703217 3.975985,1.196827 1.961717,0.493609 3.79141,0.947384 4.066418,1.008724 0.275008,0.06135 0.588122,0.124609 0.695565,0.140559 0.107444,0.01595 0.263015,-0.147269 0.345715,-0.362768 0.0827,-0.215498 0.04928,-0.492802 -0.07441,-0.6165 -0.123699,-0.123699 -1.742172,-0.609024 -3.596163,-1.078487 -1.853991,-0.469462 -3.837202,-0.931474 -4.407483,-1.026294 -0.266388,-0.04429 -0.487381,-0.06571 -0.666109,-0.0646 z m 195.94049,0.677995 c 0.19644,0 0.53428,0.176663 0.75035,0.392741 0.21608,0.216077 0.39274,0.553391 0.39274,0.749825 0,0.196434 -0.16224,0.357084 -0.3607,0.357084 -0.19846,0 -0.5363,-0.249918 -0.75035,-0.555521 -0.21406,-0.305604 -0.38912,-0.642916 -0.38912,-0.749825 0,-0.106909 0.16065,-0.194304 0.35708,-0.194304 z m -6.86418,1.249536 c -0.39365,0 -1.04428,0.286083 -1.47381,0.647506 -0.52713,0.443555 -0.76946,0.870966 -0.76946,1.358573 0,0.391337 0.10984,1.000241 0.24391,1.352889 0.13408,0.352648 0.61216,0.865942 1.06247,1.140499 0.45032,0.274557 0.85055,0.499714 0.88935,0.500228 0.0388,5.14e-4 0.45148,-0.158335 0.91726,-0.35295 0.46578,-0.194615 0.96866,-0.581253 1.11724,-0.858862 0.14857,-0.277609 0.27027,-0.845689 0.27027,-1.262455 0,-0.491075 -0.27334,-1.068536 -0.77618,-1.641244 -0.5437,-0.619232 -0.9871,-0.884184 -1.48105,-0.884184 z m -0.0408,0.84491 c 0.24151,-0.009 0.42943,0.172087 0.86971,0.612366 0.70871,0.708717 0.73505,0.801648 0.43202,1.53324 -0.17746,0.428408 -0.50564,0.876939 -0.72967,0.996838 -0.25558,0.136783 -0.63386,0.09673 -1.01544,-0.107487 -0.33447,-0.179005 -0.69068,-0.5346 -0.79117,-0.790133 -0.10048,-0.255533 -0.18999,-0.714756 -0.19999,-1.020609 -0.012,-0.379995 0.23024,-0.68421 0.76585,-0.961182 0.31292,-0.161817 0.50344,-0.256887 0.66869,-0.263033 z M 38.55001,53.011956 c -0.0082,1e-6 -0.01558,7.78e-4 -0.02222,0.0021 -0.212543,0.04124 -0.429205,0.203776 -0.481625,0.361218 -0.05242,0.157442 2.118621,2.069745 4.825029,4.24987 2.706408,2.180125 5.440373,4.347346 6.075081,4.815727 0.634708,0.468381 1.530347,1.177599 1.990576,1.576131 0.46023,0.398531 1.021758,0.688909 1.247469,0.645439 0.225712,-0.04347 0.444346,-0.257185 0.486276,-0.474907 0.0461,-0.239381 -0.49392,-0.831084 -1.366325,-1.497066 C 50.510802,62.084712 49.690535,61.454093 49.481125,61.28897 49.271714,61.123848 47.63789,59.8366 45.850339,58.42868 44.062788,57.020759 41.770707,55.209886 40.75711,54.404119 39.775187,53.623531 38.803045,53.011915 38.55001,53.011956 Z m -8.571054,0.95188 c -0.123532,0 -0.301494,0.124125 -0.395324,0.275952 -0.09384,0.151828 0.309393,0.967733 0.896069,1.812809 0.586677,0.845076 1.514329,2.127026 2.061373,2.848922 0.547044,0.721895 1.140191,1.312582 1.318266,1.312582 0.178076,0 0.372711,-0.140763 0.432531,-0.312643 0.05982,-0.17188 -0.233378,-0.81887 -0.651639,-1.437638 -0.418261,-0.618768 -1.362594,-1.884081 -2.09858,-2.812232 -0.735986,-0.928152 -1.439164,-1.687752 -1.562696,-1.687752 z m -3.756876,3.500045 c -0.144767,0 -0.331158,0.17653 -0.413928,0.392224 -0.08277,0.215695 0.104483,1.368913 0.415995,2.562634 0.311513,1.193721 0.668029,2.367478 0.7922,2.60811 0.12417,0.240632 0.320319,0.437182 0.436149,0.437182 0.115829,0 0.331332,-0.145107 0.478523,-0.322461 0.194487,-0.234342 0.09486,-0.900469 -0.364835,-2.437577 -0.347903,-1.16331 -0.733532,-2.367973 -0.856795,-2.677356 -0.123264,-0.309384 -0.342541,-0.562756 -0.487309,-0.562756 z m -4.899959,1.500167 c -0.18769,0 -0.740244,0.792395 -1.227833,1.760616 -0.487588,0.968221 -0.815024,1.876002 -0.727604,2.017448 0.08742,0.141446 0.400252,0.35472 0.695565,0.473872 0.295314,0.119152 0.593225,0.22181 0.661975,0.22841 0.06875,0.0066 0.276744,-0.08414 0.461987,-0.201538 0.185244,-0.117396 0.483399,-0.987579 0.662492,-1.933732 0.223337,-1.179916 0.245029,-1.818088 0.06976,-2.032434 -0.140541,-0.17188 -0.408655,-0.312642 -0.596346,-0.312642 z m 109.030549,3.762044 c -1.30262,0.0027 -2.15794,0.123367 -2.45256,0.346749 -0.2488,0.188641 -1.06566,1.162777 -1.81488,2.164209 -1.00395,1.341906 -1.32075,1.956109 -1.20457,2.336291 0.0867,0.283721 0.26604,0.650889 0.39791,0.815971 0.13187,0.165082 0.82099,0.343065 1.53169,0.395325 0.7107,0.05225 2.86742,0.04471 4.79247,-0.01654 2.84625,-0.09055 3.56162,-0.187428 3.83025,-0.519865 0.19589,-0.242516 0.27869,-0.740469 0.20309,-1.223697 -0.0778,-0.497011 -0.64549,-1.422916 -1.45572,-2.375049 -0.73036,-0.858272 -1.44017,-1.643057 -1.57768,-1.74408 -0.1375,-0.101024 -1.14997,-0.181617 -2.25,-0.179317 z m 0.0646,1.5012 c 1.37798,0.01239 1.46855,0.05442 2.27066,1.054716 0.46316,0.57762 0.71341,1.082534 0.56121,1.133264 -0.15105,0.05034 -0.21448,0.18918 -0.14108,0.307992 0.0734,0.118812 -0.23555,0.273101 -0.68626,0.343131 -0.4507,0.07003 -1.85968,0.177889 -3.13159,0.239779 -1.27191,0.06189 -2.31304,0.02919 -2.31304,-0.07286 0,-0.102057 0.0845,-0.269976 0.18759,-0.373104 0.10312,-0.103128 0.2019,-0.290467 0.2191,-0.416512 0.0172,-0.126045 0.0453,-0.32524 0.0625,-0.44235 0.0172,-0.11711 0.36971,-0.567034 0.78342,-0.999939 0.67707,-0.708488 0.89546,-0.785733 2.18746,-0.774113 z m -92.020223,0.237195 c -0.30838,0 -0.826033,0.185757 -1.150317,0.412895 -0.562033,0.393663 -0.582712,0.507666 -0.433049,2.437577 0.08635,1.113526 0.270579,2.417771 0.409278,2.898531 0.138699,0.480759 0.505152,1.068819 0.81442,1.306897 0.309268,0.238079 0.714212,0.435633 0.899687,0.438733 0.185475,0.0031 0.717039,-0.175008 1.181323,-0.395325 0.464284,-0.220317 1.353437,-0.848656 1.97559,-1.396297 0.703985,-0.619672 1.131197,-1.205829 1.131197,-1.551843 0,-0.305792 -0.140762,-0.72901 -0.312642,-0.941028 -0.17188,-0.212018 -0.762566,-0.708506 -1.312581,-1.102775 -0.550016,-0.394268 -1.369406,-1.029795 -1.821078,-1.412317 -0.451673,-0.382522 -1.073449,-0.695048 -1.381828,-0.695048 z m 204.376673,0.576709 c -0.50603,0.01621 -0.86959,0.263196 -1.8557,1.056783 -0.97951,0.788269 -1.43764,1.335864 -1.43764,1.718241 0,0.308651 0.25337,0.79279 0.56276,1.075904 0.30938,0.283113 1.01268,0.747701 1.56269,1.032495 0.55002,0.284794 1.20399,0.52255 1.45366,0.52865 0.24967,0.0061 0.65402,-0.0957 0.89814,-0.226343 0.24411,-0.130645 0.74972,-0.919985 1.12396,-1.753898 0.41424,-0.923062 0.6181,-1.712782 0.5209,-2.018998 -0.0878,-0.276641 -0.40436,-0.66322 -0.70332,-0.858863 -0.29895,-0.195643 -0.99355,-0.422798 -1.54357,-0.504878 -0.22867,-0.03412 -0.4132,-0.0545 -0.58188,-0.04909 z M 38.254937,65.83908 c 0.222823,0 1.150822,0.547719 2.062406,1.21698 0.911585,0.669261 1.65778,1.307329 1.65778,1.418001 0,0.110672 -0.470648,0.60408 -1.045414,1.096058 -0.649864,0.55626 -1.304762,0.894519 -1.732711,0.894519 -0.441546,0 -0.732883,-0.156983 -0.812353,-0.4377 -0.06812,-0.240632 -0.212297,-1.168631 -0.320394,-2.062406 -0.108096,-0.893776 -0.200772,-1.737834 -0.205672,-1.875338 -0.0049,-0.137504 0.173535,-0.250114 0.396358,-0.250114 z m 204.152393,0.81287 c 0.14589,-0.01026 0.31599,0.04153 0.56328,0.134876 0.42858,0.161769 0.76344,0.4991 0.82734,0.833541 0.0591,0.308902 0.0225,0.698895 -0.0811,0.866614 -0.10366,0.167719 -0.45739,0.333423 -0.78599,0.368453 -0.32861,0.03503 -0.89194,-0.114773 -1.25212,-0.333313 -0.6549,-0.397345 -0.65505,-0.39739 -0.0413,-1.201994 0.35145,-0.460759 0.52685,-0.651075 0.76998,-0.668177 z m 13.35939,0.178284 c -0.0133,-4.73e-4 -0.0259,0.003 -0.0377,0.01033 -0.12576,0.07773 -0.29792,0.512051 -0.38292,0.965316 -0.10147,0.540867 -0.39747,0.967494 -0.86093,1.241268 -0.3884,0.229431 -0.88594,0.417029 -1.10536,0.417029 -0.21941,0 -0.39894,0.110579 -0.39894,0.245463 0,0.134884 0.28152,0.315763 0.62528,0.402043 0.34376,0.08628 0.62477,0.244322 0.62477,0.350883 0,0.10656 0.22522,0.252608 0.50023,0.324528 0.275,0.07192 0.49971,0.317017 0.49971,0.545186 0,0.228168 0.12163,0.642095 0.27027,0.91984 0.14865,0.277743 0.34171,0.433949 0.42891,0.346749 0.0872,-0.0872 0.27526,-0.518894 0.41755,-0.959114 0.18893,-0.584501 0.54493,-0.933563 1.32085,-1.293978 0.58439,-0.271449 1.06298,-0.58061 1.06298,-0.687297 0,-0.106685 -0.12383,-0.194303 -0.27492,-0.194303 -0.1511,0 -0.6565,-0.180708 -1.12293,-0.402043 -0.64441,-0.305789 -0.91153,-0.638077 -1.11207,-1.382861 -0.13156,-0.488546 -0.32586,-0.844469 -0.45476,-0.849044 z M 4.2477105,68.748463 c -0.3531163,-0.0087 -0.7409577,0.08467 -0.9141561,0.22841 -0.197941,0.164276 -0.3596679,0.472777 -0.3596679,0.685746 0,0.212968 0.1863612,0.592934 0.4139282,0.844393 0.227568,0.25146 0.5436197,0.457337 0.7022827,0.457337 0.158664,0 0.487922,-0.145867 0.732255,-0.324528 0.295553,-0.216112 0.4165515,-0.572203 0.3607015,-1.062984 -0.068038,-0.597875 -0.2170513,-0.752738 -0.7865153,-0.818038 -0.048306,-0.0055 -0.098383,-0.0091 -0.1488281,-0.01034 z m 20.3589645,1.466061 c -0.326757,0 -1.136731,0.403969 -1.800407,0.898136 -0.663676,0.494167 -1.403712,1.125677 -1.644344,1.403015 -0.336369,0.38768 -0.4377,0.956101 -0.4377,2.458765 0,1.50028 0.09794,2.052339 0.42168,2.376082 0.364055,0.364055 0.756311,0.398205 2.867008,0.248564 1.344892,-0.09535 2.756475,-0.256414 3.13676,-0.358118 0.380927,-0.101876 0.89063,-0.526028 1.134814,-0.944128 0.44308,-0.758659 0.442723,-0.759358 -0.679545,-3.128491 -0.801472,-1.691922 -1.305758,-2.453428 -1.7632,-2.661853 -0.352408,-0.160567 -0.908308,-0.291972 -1.235066,-0.291972 z m 0.170015,1.313615 c 0.105627,-9.5e-4 0.207392,0.0099 0.30179,0.03359 0.419968,0.105406 0.702088,0.440031 0.914673,1.084172 0.169108,0.512402 0.514855,1.27194 0.768429,1.687752 0.253574,0.415811 0.461473,0.971518 0.461987,1.235067 5.14e-4,0.263548 -0.07282,0.405189 -0.163297,0.314709 -0.09048,-0.09048 -0.287545,-0.06658 -0.4377,0.05323 -0.150156,0.119808 -1.11691,0.282408 -2.148189,0.361218 -1.03128,0.07884 -2.015584,0.08306 -2.187464,0.0093 -0.198155,-0.08504 -0.312642,-0.659629 -0.312642,-1.56993 0,-1.170868 0.10398,-1.529776 0.562756,-1.946134 0.309384,-0.280778 0.870852,-0.706584 1.247986,-0.946196 0.319695,-0.203121 0.674789,-0.313927 0.991671,-0.316776 z m 75.15717,6.936527 c -1.86433,0 -2.946318,0.111964 -3.407028,0.352433 -0.37131,0.193804 -2.193555,1.965862 -4.049365,3.937745 -1.85581,1.971883 -3.93633,4.175485 -4.62349,4.897375 -0.68716,0.7219 -1.437402,1.312581 -1.667082,1.312581 -0.22967,0 -0.792913,-0.376678 -1.251603,-0.837158 -0.45869,-0.46048 -1.759226,-1.838395 -2.889746,-3.062345 -1.13052,-1.223945 -2.947733,-3.181856 -4.038513,-4.350639 -1.98323,-2.125064 -1.983146,-2.125047 -4.969206,-2.207617 -2.51666,-0.06959 -3.051246,-0.01781 -3.399276,0.330212 -0.37204,0.372038 -0.412895,1.560972 -0.412895,12.002368 0,11.589339 1.45e-4,11.589629 0.658875,12.107789 0.49236,0.38728 1.020565,0.5178 2.091345,0.5178 1.07077,0 1.598995,-0.13052 2.091345,-0.5178 0.65874,-0.51816 0.658875,-0.51825 0.658875,-8.190198 0,-7.26526 0.02477,-7.687716 0.47439,-7.968506 0.42401,-0.2648 0.83172,0.083 3.81217,3.252514 1.83549,1.95193 3.902748,4.130702 4.593518,4.842082 0.69078,0.71139 1.562666,1.370827 1.937866,1.465027 0.37519,0.0941 0.939961,0.106489 1.255221,0.02739 0.31526,-0.07913 1.64843,-1.244823 2.96261,-2.590023 1.31419,-1.3452 3.315463,-3.422099 4.447273,-4.615739 1.70259,-1.79561 2.184224,-2.16694 2.787944,-2.14974 0.72969,0.02075 0.729671,0.02064 0.729671,7.619173 0,7.598541 -1.82e-4,7.598851 0.640788,8.239811 0.5891,0.58913 0.780963,0.6326 2.374013,0.5426 1.21975,-0.0689 1.86351,-0.22743 2.17196,-0.53589 0.40732,-0.40736 0.43329,-1.26263 0.36639,-12.103133 -0.0489,-7.913497 -0.15919,-11.769892 -0.34313,-11.991516 -0.1929,-0.232431 -1.0592,-0.326595 -3.00292,-0.326595 z m 11.28562,0 c -1.5407,0 -1.84355,0.07776 -2.37919,0.613399 -0.61366,0.613654 -0.6134,0.61385 -0.6134,11.613762 0,7.55173 0.0873,11.191503 0.27854,11.611173 0.15319,0.33622 0.51865,0.72751 0.81235,0.86972 0.29369,0.14221 1.11874,0.26695 1.83297,0.27595 1.01245,0.0132 1.44634,-0.11093 1.97042,-0.56172 0.67216,-0.57819 0.67246,-0.57806 0.70176,-11.786879 0.0267,-10.229658 -0.009,-11.271233 -0.40462,-11.92227 -0.41121,-0.676143 -0.52582,-0.713135 -2.19883,-0.713135 z m 11.27269,0 c -1.69454,0 -2.56485,0.10606 -2.90473,0.3545 -0.46522,0.34003 -0.488,0.793409 -0.555,10.937834 -0.0385,5.82069 -0.003,11.06368 0.0785,11.65097 0.0856,0.61526 0.37357,1.27762 0.67955,1.56269 0.38973,0.36309 0.88102,0.49455 1.84691,0.49455 0.72387,0 1.60062,-0.12947 1.94821,-0.28784 0.34758,-0.15837 0.68287,-0.46754 0.74517,-0.6873 0.0623,-0.21977 0.14679,-3.268427 0.18759,-6.774777 0.0408,-3.50635 0.11751,-6.62635 0.17001,-6.93291 0.0714,-0.41651 0.24965,-0.544646 0.70538,-0.506946 0.40071,0.03316 1.1065,0.610344 2.05879,1.682584 0.79716,0.89757 2.38705,2.757008 3.5326,4.132048 1.14555,1.37504 3.27053,3.90618 4.7222,5.62498 1.45167,1.718801 2.80944,3.262251 3.01738,3.429761 0.22494,0.18119 1.1946,0.30765 2.39366,0.31265 1.6895,0.007 2.10343,-0.0745 2.56211,-0.50178 0.54715,-0.50975 0.54726,-0.50978 0.54726,-11.841657 0,-11.085591 -0.0109,-11.346065 -0.5178,-11.990482 -0.47069,-0.598384 -0.67728,-0.658875 -2.25051,-0.658875 -1.39856,0 -1.82812,0.09594 -2.2319,0.499711 -0.47441,0.47443 -0.49972,0.833478 -0.49972,7.015076 0,4.91051 -0.072,6.470747 -0.29248,6.334497 -0.19552,-0.12084 -0.24057,-0.04588 -0.13591,0.226859 0.0861,0.2244 0.0313,0.48541 -0.12144,0.57981 -0.15812,0.09773 -0.20796,0.05869 -0.11576,-0.09043 0.09,-0.14562 -0.115,-0.331062 -0.46147,-0.418062 -0.34281,-0.08604 -0.62322,-0.273512 -0.62322,-0.416512 0,-0.14298 -0.10001,-0.19849 -0.22221,-0.12299 -0.12221,0.07553 -0.53923,-0.283067 -0.92707,-0.797367 -0.38784,-0.5143 -0.83151,-1.047948 -0.98599,-1.185458 -0.15449,-0.1375 -1.00239,-1.149962 -1.88412,-2.249992 -0.88174,-1.10003 -2.13828,-2.613241 -2.79208,-3.362585 -0.6538,-0.749344 -1.18856,-1.433874 -1.18856,-1.521354 0,-0.08748 -0.9149,-1.133565 -2.03295,-2.324923 -2.0328,-2.166107 -2.0329,-2.166276 -4.45244,-2.166276 z m 38.61832,0.0016 c -9.47079,0.0016 -10.04656,0.02784 -10.74043,0.485242 -0.40324,0.265818 -0.87741,0.74325 -1.05368,1.060917 -0.24467,0.440972 -0.3227,2.859289 -0.3297,10.225733 -0.009,9.6222 -0.007,9.651276 0.57206,10.746632 0.43632,0.82511 0.91425,1.27278 1.92029,1.79834 1.33919,0.69963 1.33913,0.69948 10.68979,0.62838 8.92357,-0.0678 9.36689,-0.0934 9.70535,-0.55655 0.19507,-0.26692 0.3545,-0.75798 0.3545,-1.09141 0,-0.33343 -0.41007,-1.16445 -0.91105,-1.846913 -0.50097,-0.68247 -1.18319,-1.344618 -1.51619,-1.471228 -0.33301,-0.12661 -3.78172,-0.22996 -7.66413,-0.22996 -5.15693,0 -7.14007,-0.08107 -7.35924,-0.300241 -0.18206,-0.18206 -0.29973,-1.066621 -0.29973,-2.249991 0,-1.20581 0.10087,-1.950269 0.26459,-1.950269 0.14564,0 0.2027,-0.100669 0.1266,-0.223759 -0.0761,-0.1231 0.0391,-0.291454 0.2558,-0.374654 0.21671,-0.08316 3.11256,-0.154096 6.43579,-0.157096 5.34914,-0.0049 6.10288,-0.05477 6.57065,-0.437183 0.2906,-0.23757 0.82499,-0.88026 1.18753,-1.42782 0.36254,-0.54756 0.65939,-1.289198 0.65939,-1.648478 0,-0.35928 -0.22616,-0.85809 -0.50281,-1.10846 -0.4551,-0.41186 -1.17569,-0.465656 -7.56285,-0.562756 -3.88284,-0.05905 -7.09905,-0.145103 -7.14685,-0.191203 -0.0478,-0.04612 -0.11518,-0.733218 -0.15038,-1.527038 -0.0352,-0.79382 -0.0114,-1.645405 0.0532,-1.892391 0.10965,-0.419325 0.60744,-0.449068 7.51634,-0.449068 7.39897,0 7.39931,4.2e-5 8.72143,-1.420586 1.03542,-1.112576 1.32188,-1.597562 1.32188,-2.236039 0,-0.559054 -0.17449,-0.937697 -0.55552,-1.204577 -0.48053,-0.336579 -1.90822,-0.388974 -10.56266,-0.387574 z m 24.62278,0.05116 c -8.55233,0.07206 -8.55205,0.07215 -9.15189,0.822172 -0.60007,0.750022 -0.60052,0.749902 -0.60152,11.824085 -0.001,11.074187 -0.001,11.074527 0.61237,11.688177 h 5.2e-4 c 0.5172,0.51716 0.8534,0.6134 2.13682,0.6134 1.28343,0 1.6191,-0.0962 2.1363,-0.6134 0.61365,-0.61365 0.6134,-0.61363 0.6134,-9.625254 0,-8.40455 0.0297,-9.013699 0.4377,-9.041309 0.24064,-0.01628 0.52164,-0.01628 0.62477,0 0.10311,0.01628 0.18758,-0.08315 0.18758,-0.220658 0,-0.158897 1.95396,-0.249597 5.36143,-0.249597 5.27579,0 5.37213,0.0091 6.04821,0.590661 0.62616,0.538569 0.68815,0.748336 0.70125,2.367814 0.0124,1.52614 -0.0655,1.857427 -0.55397,2.346627 -0.53762,0.5384 -0.81165,0.576953 -5.00021,0.702283 -2.43724,0.07292 -4.62425,0.224237 -4.85965,0.335897 -0.2354,0.11166 -0.49858,0.425402 -0.58498,0.697632 -0.0868,0.27223 -0.0847,0.740269 0.004,1.039729 0.0888,0.29946 0.80193,1.097742 1.58492,1.774052 0.78298,0.6763 3.26464,2.982749 5.51491,5.125269 2.25027,2.142534 4.38779,4.091274 4.7501,4.331004 0.52139,0.34501 1.20881,0.4367 3.29644,0.4377 1.72014,0.001 2.74214,-0.10253 2.9378,-0.29818 0.165,-0.16501 0.29972,-0.53844 0.29972,-0.8294 0,-0.29096 -0.38869,-0.87316 -0.86403,-1.29398 -0.47533,-0.42083 -0.80442,-0.82494 -0.73122,-0.89814 0.0732,-0.0732 -0.0729,-0.198633 -0.32453,-0.278533 -0.25167,-0.07987 -1.25853,-0.961757 -2.23758,-1.960087 -0.97905,-0.99834 -1.95552,-2.160765 -2.1699,-2.583305 -0.38978,-0.76826 -0.38986,-0.768248 0.48524,-1.084688 0.48131,-0.17404 1.26877,-0.662369 1.74977,-1.084689 0.48099,-0.42232 1.17645,-1.340295 1.54564,-2.040185 0.62867,-1.19172 0.6711,-1.479061 0.67128,-4.522721 1.7e-4,-2.874188 -0.0632,-3.369197 -0.55139,-4.28191 -0.30364,-0.567646 -1.08167,-1.498144 -1.72858,-2.067574 -0.72467,-0.63788 -1.67777,-1.180949 -2.48253,-1.4149 -1.07926,-0.313758 -2.79181,-0.367532 -9.85832,-0.307992 z M 51.760056,79.714719 c -10.622849,0 -13.00506,0.0611 -13.110311,0.33538 -0.07075,0.184349 -0.05475,0.448252 0.03566,0.587044 0.09041,0.138793 0.305074,0.297444 0.476973,0.352434 0.171899,0.05499 5.931956,0.100252 12.800253,0.100252 9.278404,0 12.563995,-0.07588 12.783715,-0.295589 0.16266,-0.162637 0.227911,-0.472316 0.145211,-0.687814 -0.13385,-0.348786 -1.575591,-0.391707 -13.131498,-0.391707 z m 166.129394,0 c -10.30932,0 -12.62996,0.06128 -12.73514,0.33538 -0.0707,0.184349 -0.0529,0.456998 0.0393,0.606165 0.0922,0.149167 0.61603,0.307813 1.16427,0.352433 0.54823,0.04462 6.13807,0.08113 12.42199,0.08113 8.46061,0 11.50225,-0.07662 11.72124,-0.295589 0.16266,-0.162637 0.22791,-0.472316 0.14521,-0.687814 -0.13376,-0.348586 -1.54143,-0.391707 -12.75684,-0.391707 z M 98.212001,79.80567 c 0.454297,-0.01195 1.030296,0.0058 1.646411,0.05581 2.118178,0.171868 2.118218,0.171746 2.118218,11.150741 0,10.979049 -4e-5,10.979329 -1.31258,10.903729 -1.312584,-0.0756 -1.312513,-0.0756 -1.378213,-8.929173 -0.04475,-6.02603 -0.154331,-8.960073 -0.343131,-9.187553 -0.15255,-0.183819 -0.527248,-0.334346 -0.832508,-0.334346 -0.38583,0 -1.38622,0.889056 -3.28197,2.917134 -1.49984,1.60453 -3.233191,3.441678 -3.851961,4.082438 -0.61877,0.64077 -1.826071,1.915602 -2.683041,2.832902 -1.03904,1.11218 -1.747551,1.667599 -2.127001,1.667599 -0.37581,0 -1.120255,-0.573393 -2.192115,-1.689303 -0.89263,-0.92932 -3.301415,-3.517273 -5.352645,-5.750553 -2.05124,-2.233278 -3.907232,-4.0587 -4.124812,-4.0566 -0.21758,0.0021 -0.5489,0.101359 -0.73639,0.220142 -0.27731,0.175699 -0.336826,1.748023 -0.318326,8.433593 0.01253,4.51987 -0.04354,8.58357 -0.124541,9.03046 -0.13824,0.76289 -0.21029,0.81273 -1.18184,0.80873 -0.56909,-0.002 -1.178826,-0.0954 -1.354956,-0.20722 -0.25294,-0.1606 -0.307632,-2.248968 -0.259932,-9.961148 0.03316,-5.3671 0.104863,-10.224458 0.159163,-10.793657 0.09869,-1.034908 0.09844,-1.034562 2.41329,-1.034562 2.31485,0 2.314921,-2.43e-4 5.156791,3.062345 1.56303,1.684423 3.422231,3.681702 4.131531,4.437972 0.70929,0.75627 1.794815,1.908978 2.412255,2.562118 0.61745,0.65314 1.200529,1.187524 1.295529,1.187524 0.095,0 0.781741,-0.534384 1.526521,-1.187524 0.74478,-0.65314 1.35554,-1.281261 1.35754,-1.395781 0.0017,-0.11453 0.942746,-1.183288 2.091346,-2.375048 1.14861,-1.191762 2.920664,-3.048978 3.937744,-4.127397 1.01708,-1.078419 2.04898,-2.06826 2.2934,-2.199866 0.129265,-0.0696 0.461925,-0.111555 0.916223,-0.123506 z m 13.243119,0.05736 c 0.24923,3.27e-4 0.46415,0.01601 0.58446,0.04703 0.40832,0.105267 0.43718,0.844995 0.43718,11.084078 0,10.971146 4.5e-4,10.971426 -1.37459,10.971426 -1.37504,0 -1.37511,-2e-5 -1.37511,-10.972976 0,-10.972962 -1.1e-4,-10.973091 0.93741,-11.084078 0.25782,-0.03052 0.54142,-0.0458 0.79065,-0.04548 z m 74.9024,0.06615 c 8.37661,0.02164 8.42867,0.0248 9.75497,0.632003 0.95267,0.436143 1.51922,0.90448 1.98334,1.639693 0.35729,0.565979 0.7596,1.609027 0.894,2.317688 0.13438,0.708661 0.17913,2.026677 0.0997,2.929537 -0.0794,0.90285 -0.31248,2.114879 -0.51831,2.692859 -0.20582,0.57799 -0.75307,1.383135 -1.21595,1.789555 -0.46288,0.40641 -1.45716,0.918121 -2.20968,1.136881 -0.75251,0.21876 -1.66391,0.397392 -2.0252,0.397392 -0.36397,0 -0.72335,0.17395 -0.80615,0.38964 -0.10011,0.26088 0.34155,0.858453 1.33945,1.812293 0.81896,0.78281 2.24091,2.135451 3.16001,3.005501 0.98264,0.93019 1.60197,1.702432 1.50327,1.874822 -0.0923,0.16124 -0.0781,0.21227 0.0315,0.11317 0.10965,-0.0991 0.53209,0.0564 0.93845,0.34572 0.5637,0.40139 0.65912,0.57668 0.40307,0.73897 -0.18458,0.11703 -0.97679,0.21452 -1.76061,0.21652 -0.88683,0.002 -1.50082,-0.1165 -1.62523,-0.31471 -0.10996,-0.17518 -0.48099,-0.49959 -0.82475,-0.72088 -0.34376,-0.2213 -1.54932,-1.28716 -2.67891,-2.36885 -1.1296,-1.08169 -2.73434,-2.565693 -3.56619,-3.297473 -0.83185,-0.73177 -1.44781,-1.434549 -1.36891,-1.562179 0.0789,-0.12763 0.0138,-0.232544 -0.14417,-0.232544 -0.15797,0 -0.60708,-0.301937 -0.99839,-0.671277 -0.53405,-0.50407 -0.6552,-0.776863 -0.48576,-1.093473 0.19095,-0.35679 0.77607,-0.439018 3.79667,-0.533818 2.73351,-0.0858 3.76357,-0.213086 4.39404,-0.543636 0.45297,-0.23749 1.04314,-0.792273 1.31155,-1.232483 0.37748,-0.6191 0.48814,-1.257856 0.48886,-2.821016 8.9e-4,-1.924573 -0.0377,-2.066125 -0.81804,-2.968811 -0.64559,-0.746837 -1.06241,-0.984955 -1.96474,-1.121895 -0.62987,-0.09559 -3.32696,-0.188169 -5.99343,-0.206189 -2.66646,-0.01802 -5.35451,0.04572 -5.97328,0.14211 -1.12503,0.175256 -1.12504,0.175501 -1.25005,9.717753 -0.0687,5.24823 -0.19867,9.615771 -0.28887,9.705871 -0.0902,0.0901 -0.59171,0.0461 -1.11415,-0.0982 v -5.2e-4 c -0.69771,-0.19262 -0.9973,-0.18507 -1.12861,0.0274 -0.10284,0.1664 -0.24766,-0.0784 -0.34106,-0.57619 -0.0893,-0.47595 -0.12617,-5.32849 -0.0822,-10.78332 0.0574,-7.118464 0.16205,-9.999856 0.37104,-10.20868 0.21078,-0.210621 2.61606,-0.284984 8.71264,-0.269234 z m -63.49689,0.03566 c 1.78359,0 1.78373,-3.36e-4 6.63783,5.792411 2.66975,3.18602 5.64172,6.761955 6.60425,7.946285 0.96253,1.18434 2.00313,2.402538 2.31252,2.707328 0.30938,0.30478 0.78746,0.554489 1.06247,0.554489 0.37308,0 0.50588,-0.174824 0.52348,-0.687814 0.013,-0.37814 0.0411,-4.175108 0.0625,-8.437728 0.0389,-7.750223 0.0391,-7.750072 1.34359,-7.825362 1.30454,-0.07529 1.30461,-0.07551 1.37511,10.375078 0.0388,5.74783 -0.0114,10.70389 -0.11111,11.01328 -0.16362,0.50761 -0.34065,0.56276 -1.81746,0.56276 -1.50309,0 -1.65978,-0.0512 -1.92133,-0.62529 -0.15662,-0.34376 -0.365,-0.62477 -0.4625,-0.62477 -0.0975,0 -0.8389,-0.803646 -1.64745,-1.785416 -0.80856,-0.98178 -2.31373,-2.767 -3.34501,-3.9672 -1.03128,-1.20021 -2.43736,-2.889326 -3.12488,-3.753776 -0.68752,-0.86445 -1.53157,-1.879153 -1.87533,-2.254643 -0.34376,-0.37548 -1.44998,-1.651533 -2.45825,-2.836003 -1.00828,-1.184464 -1.90818,-2.151839 -1.99988,-2.149739 -0.0918,0.0021 -0.30587,0.09197 -0.47594,0.199988 -0.23386,0.148534 -0.32537,2.325581 -0.37517,8.933821 -0.0658,8.737568 -0.0656,8.737868 -1.19993,8.811868 -0.62389,0.0407 -1.21458,-0.006 -1.31258,-0.10439 -0.098,-0.098 -0.17828,-4.918 -0.17828,-10.71149 0,-7.859489 0.0759,-10.610118 0.29972,-10.833964 0.17727,-0.17727 1.0297,-0.299723 2.0836,-0.299723 z m 37.79304,0.05943 c 9.80078,-0.06539 9.80096,-0.06513 9.5529,0.625285 -0.13643,0.379726 -0.38847,0.876081 -0.56017,1.103291 -0.27597,0.365204 -1.21573,0.423398 -8.10441,0.500228 -7.44412,0.08302 -7.80953,0.108856 -8.1747,0.586528 -0.30093,0.393574 -0.36948,1.112459 -0.32298,3.375504 0.059,2.87508 0.059,2.874807 7.55923,2.999817 7.30729,0.12179 7.50218,0.138 7.57318,0.63407 0.0424,0.29607 -0.20146,0.766896 -0.58239,1.124996 -0.65511,0.6159 -0.65494,0.615997 -7.3117,0.690397 -4.27058,0.04776 -6.77328,0.170752 -6.98097,0.343132 -0.22814,0.18936 -0.32349,1.060354 -0.32349,2.950724 0,1.47519 0.12072,3.028409 0.2682,3.451469 0.17913,0.51386 0.52329,0.858006 1.03714,1.037146 0.47855,0.16682 3.48774,0.268201 7.96386,0.268201 7.19476,0 7.19497,3.9e-4 7.68894,0.628381 0.2839,0.36092 0.4385,0.83933 0.3638,1.125 -0.0857,0.32786 -0.35379,0.50532 -0.78807,0.52142 -0.3621,0.0135 -3.99785,0.0416 -8.07961,0.0625 -4.08176,0.0209 -7.73849,-0.0274 -8.1256,-0.10748 -0.38712,-0.0801 -1.06873,-0.33641 -1.51515,-0.56896 -0.48782,-0.25411 -0.96164,-0.78175 -1.18753,-1.3224 -0.31077,-0.743826 -0.3762,-2.452546 -0.3762,-9.869166 0,-5.36615 0.0934,-8.969478 0.23254,-8.969478 0.12794,0 0.26874,-0.253373 0.31264,-0.562757 0.0799,-0.562519 0.0797,-0.562478 9.88054,-0.627868 z M 20.184205,88.465089 c -0.125017,0.01032 -0.291376,0.343761 -0.372587,0.749825 -0.0825,0.41251 -0.262962,0.749825 -0.401525,0.749825 -0.138564,0 -0.433907,0.209231 -0.656291,0.464571 -0.222384,0.25534 -0.668963,0.547493 -0.992188,0.649573 -0.323221,0.10208 -0.49214,0.278111 -0.375171,0.391191 0.11697,0.11308 0.606525,0.30501 1.087789,0.42633 0.73789,0.186 0.927758,0.38507 1.211296,1.26969 0.184928,0.57697 0.425819,1.049032 0.535368,1.049032 0.10955,0 0.270441,-0.284226 0.357601,-0.631486 0.08716,-0.34725 0.377942,-0.850785 0.645955,-1.118795 0.268013,-0.26801 0.7764,-0.559839 1.129647,-0.648539 0.353246,-0.08866 0.60046,-0.287904 0.54932,-0.443384 -0.05113,-0.15547 -0.344101,-0.319835 -0.651123,-0.364835 -0.307022,-0.04504 -0.619998,-0.24211 -0.695048,-0.4377 -0.07506,-0.19559 -0.288042,-0.355534 -0.473356,-0.355534 -0.187129,0 -0.410091,-0.388902 -0.501261,-0.874882 -0.09029,-0.48126 -0.266586,-0.874882 -0.392224,-0.874882 -0.002,0 -0.0042,-1.64e-4 -0.0062,0 z m 216.421415,7.250204 c -0.28876,0 -0.66026,0.134723 -0.82527,0.299723 -0.165,0.16501 -0.29973,0.536513 -0.29973,0.825273 0,0.28875 0.13473,0.659746 0.29973,0.824756 0.16501,0.165 0.49456,0.30024 0.73225,0.30024 0.23768,0 0.6092,-0.176661 0.82528,-0.392741 0.21608,-0.21608 0.39274,-0.587593 0.39274,-0.825273 0,-0.23769 -0.13523,-0.567245 -0.30024,-0.732255 -0.165,-0.165 -0.536,-0.299723 -0.82476,-0.299723 z M 55.475075,100.07265 c -0.156291,0 -0.312236,0.0426 -0.470256,0.12712 -0.258831,0.13852 -0.536407,0.42348 -0.617017,0.63356 -0.08058,0.21007 -0.07839,0.55997 0.0052,0.77773 0.08356,0.21777 0.389288,0.48428 0.679545,0.59221 0.290257,0.108 0.671795,0.14183 0.847494,0.0749 0.1757,-0.0669 0.428015,-0.32526 0.561206,-0.57413 0.13319,-0.24887 0.173323,-0.63263 0.08888,-0.85266 -0.08444,-0.22004 -0.36542,-0.51312 -0.624251,-0.65164 -0.15802,-0.0846 -0.314482,-0.12712 -0.470772,-0.12712 z" /></g></svg>
